<svg width="184" height="29" viewBox="0 0 184 29" fill="none" xmlns="http://www.w3.org/2000/svg">
<path fill-rule="evenodd" clip-rule="evenodd" d="M25.6725 3.05262H3.08771V25.3808H25.6725V3.05262ZM3.08771 0H0V3.05262V25.3808V28.4334H3.08771H25.6725H28.7602V25.3808V3.05262V0H25.6725H3.08771ZM20.9013 8.05166L20.3878 10.106C20.1744 10.9661 19.3887 11.5678 18.4886 11.5678H10.3502L10.8637 9.51038C11.0772 8.65338 11.8597 8.05166 12.7599 8.05166H20.9013ZM9.64595 14.5727C9.85874 13.7043 10.639 13.0915 11.5364 13.0915H17.2263L16.7143 15.1732C16.5015 16.0447 15.7182 16.6575 14.8208 16.6575H12.8101L12.1378 19.4568C11.9219 20.3283 11.1386 20.9442 10.2381 20.9442H8.09782L9.64595 14.5727Z" fill="white"/>
<path d="M41.4293 17.5765V24.1852H37.2576V5.55591H50.284V9.41774H41.4293V13.8779H49.5843V17.5765H41.4293Z" fill="white"/>
<path d="M58.4432 9.96166C59.5019 9.96166 60.4797 10.152 61.3769 10.5328C62.292 10.9135 63.0815 11.4302 63.7453 12.0829C64.4092 12.7356 64.9296 13.5062 65.3064 14.3946C65.6832 15.283 65.8716 16.2349 65.8716 17.2502C65.8716 18.2655 65.6832 19.2174 65.3064 20.1058C64.9296 20.976 64.4092 21.7375 63.7453 22.3902C63.0815 23.0429 62.292 23.5596 61.3769 23.9404C60.4797 24.3211 59.5019 24.5115 58.4432 24.5115C57.3846 24.5115 56.3978 24.3302 55.4827 23.9676C54.5855 23.5868 53.805 23.0701 53.1411 22.4174C52.4773 21.7647 51.9569 20.9942 51.5801 20.1058C51.2213 19.2174 51.0418 18.2655 51.0418 17.2502C51.0418 16.2349 51.2302 15.283 51.607 14.3946C51.9838 13.5062 52.4952 12.7356 53.1411 12.0829C53.805 11.4302 54.5855 10.9135 55.4827 10.5328C56.3978 10.152 57.3846 9.96166 58.4432 9.96166ZM58.4432 13.3884C57.9229 13.3884 57.4295 13.4881 56.963 13.6875C56.5144 13.8688 56.1196 14.1317 55.7787 14.4762C55.4558 14.8207 55.1956 15.2286 54.9982 15.7C54.8188 16.1714 54.7291 16.6881 54.7291 17.2502C54.7291 17.8122 54.8188 18.329 54.9982 18.8003C55.1777 19.2717 55.4288 19.6797 55.7518 20.0242C56.0748 20.3687 56.4606 20.6406 56.9091 20.84C57.3577 21.0395 57.8422 21.1392 58.3625 21.1392C58.8828 21.1392 59.3763 21.0395 59.8428 20.84C60.3093 20.6406 60.713 20.3687 61.0539 20.0242C61.3948 19.6797 61.664 19.2717 61.8613 18.8003C62.0587 18.329 62.1574 17.8122 62.1574 17.2502C62.1574 16.6881 62.0587 16.1714 61.8613 15.7C61.6819 15.2286 61.4217 14.8207 61.0808 14.4762C60.7579 14.1317 60.3631 13.8688 59.8966 13.6875C59.448 13.4881 58.9636 13.3884 58.4432 13.3884Z" fill="white"/>
<path d="M67.0804 9.03699V5.55591H70.8214V9.03699H67.0804ZM67.0804 24.1852V10.2336H70.8214V24.1852H67.0804Z" fill="white"/>
<path d="M72.3371 24.1852V5.55591H76.105V24.1852H72.3371Z" fill="white"/>
<path d="M77.62 24.1852V20.2417H81.4957V24.1852H77.62Z" fill="white"/>
<path d="M87.4214 12.3821V24.1852H83.4112V5.55591H87.9597L95.388 17.3862V5.55591H99.3982V24.1852H94.8497L87.4214 12.3821Z" fill="white"/>
<path d="M114.84 21.1936C114.158 22.227 113.279 23.0429 112.202 23.6412C111.144 24.2214 109.843 24.5115 108.3 24.5115C107.187 24.5115 106.182 24.3302 105.285 23.9676C104.406 23.5868 103.644 23.0792 102.998 22.4446C102.37 21.7919 101.885 21.0214 101.544 20.133C101.203 19.2445 101.033 18.2836 101.033 17.2502C101.033 16.253 101.203 15.3102 101.544 14.4218C101.903 13.5334 102.405 12.7628 103.051 12.1101C103.697 11.4393 104.469 10.9135 105.366 10.5328C106.263 10.152 107.25 9.96166 108.327 9.96166C109.421 9.96166 110.399 10.143 111.26 10.5056C112.121 10.8682 112.848 11.3668 113.44 12.0014C114.05 12.6359 114.517 13.3884 114.84 14.2586C115.163 15.1108 115.324 16.0445 115.324 17.0598C115.324 17.3318 115.315 17.6128 115.297 17.9029C115.279 18.193 115.27 18.3561 115.27 18.3924H104.72C104.917 19.2808 105.33 19.9879 105.958 20.5137C106.604 21.0395 107.411 21.3024 108.38 21.3024C109.224 21.3024 109.941 21.1392 110.534 20.8129C111.144 20.4684 111.646 20.0151 112.041 19.4531L114.84 21.1936ZM108.3 13.062C107.42 13.062 106.685 13.2886 106.093 13.7419C105.519 14.177 105.106 14.7935 104.855 15.5912H111.556C111.359 14.7391 110.955 14.1045 110.345 13.6875C109.735 13.2705 109.053 13.062 108.3 13.062Z" fill="white"/>
<path d="M124.797 10.2336V13.6059H121.406V19.2083C121.406 19.8429 121.55 20.2961 121.837 20.5681C122.142 20.8219 122.608 20.9488 123.236 20.9488H124.797V24.1852H122.967C121.119 24.1852 119.773 23.7863 118.93 22.9885C118.087 22.1726 117.665 20.976 117.665 19.3987V13.6059H115.673V10.2336H117.665V6.64375H121.406V10.2336H124.797Z" fill="white"/>
<path d="M135.854 16.2167L133.97 24.1852H129.233L125.707 10.2336H129.475L131.736 19.8338L134.078 10.2336H137.846L140.16 19.8882L142.448 10.2336H146.081L142.529 24.1852H137.738L135.854 16.2167Z" fill="white"/>
<path d="M153.458 9.96166C154.516 9.96166 155.494 10.152 156.391 10.5328C157.306 10.9135 158.096 11.4302 158.76 12.0829C159.424 12.7356 159.944 13.5062 160.321 14.3946C160.698 15.283 160.886 16.2349 160.886 17.2502C160.886 18.2655 160.698 19.2174 160.321 20.1058C159.944 20.976 159.424 21.7375 158.76 22.3902C158.096 23.0429 157.306 23.5596 156.391 23.9404C155.494 24.3211 154.516 24.5115 153.458 24.5115C152.399 24.5115 151.412 24.3302 150.497 23.9676C149.6 23.5868 148.819 23.0701 148.156 22.4174C147.492 21.7647 146.971 20.9942 146.595 20.1058C146.236 19.2174 146.056 18.2655 146.056 17.2502C146.056 16.2349 146.245 15.283 146.621 14.3946C146.998 13.5062 147.51 12.7356 148.156 12.0829C148.819 11.4302 149.6 10.9135 150.497 10.5328C151.412 10.152 152.399 9.96166 153.458 9.96166ZM153.458 13.3884C152.937 13.3884 152.444 13.4881 151.977 13.6875C151.529 13.8688 151.134 14.1317 150.793 14.4762C150.47 14.8207 150.21 15.2286 150.013 15.7C149.833 16.1714 149.744 16.6881 149.744 17.2502C149.744 17.8122 149.833 18.329 150.013 18.8003C150.192 19.2717 150.443 19.6797 150.766 20.0242C151.089 20.3687 151.475 20.6406 151.924 20.84C152.372 21.0395 152.857 21.1392 153.377 21.1392C153.897 21.1392 154.391 21.0395 154.857 20.84C155.324 20.6406 155.727 20.3687 156.068 20.0242C156.409 19.6797 156.678 19.2717 156.876 18.8003C157.073 18.329 157.172 17.8122 157.172 17.2502C157.172 16.6881 157.073 16.1714 156.876 15.7C156.696 15.2286 156.436 14.8207 156.095 14.4762C155.772 14.1317 155.378 13.8688 154.911 13.6875C154.462 13.4881 153.978 13.3884 153.458 13.3884Z" fill="white"/>
<path d="M162.095 24.1852V10.2336H165.836V12.1373C166.302 11.5028 166.868 10.9951 167.531 10.6144C168.213 10.2336 168.985 10.0432 169.846 10.0432V13.8507C168.464 13.8507 167.451 14.2133 166.805 14.9385C166.177 15.6456 165.863 16.6065 165.863 17.8213V24.1852H162.095Z" fill="white"/>
<path d="M179.532 10.2336H183.785L178.483 17.1686L184 24.1852H179.344L174.957 18.4468V24.1852H171.189V5.55591H174.957V16.4887L179.532 10.2336Z" fill="white"/>
</svg>
