<svg width="37" height="37" viewBox="0 0 37 37" fill="none" xmlns="http://www.w3.org/2000/svg">
<path fill-rule="evenodd" clip-rule="evenodd" d="M3.39167 18.5C3.39167 26.8441 10.1559 33.6083 18.5 33.6083C26.8441 33.6083 33.6083 26.8441 33.6083 18.5C33.6083 10.1559 26.8441 3.39167 18.5 3.39167C10.1559 3.39167 3.39167 10.1559 3.39167 18.5ZM18.5 0C8.28273 0 0 8.28273 0 18.5C0 28.7173 8.28273 37 18.5 37C28.7173 37 37 28.7173 37 18.5C37 8.28273 28.7173 0 18.5 0ZM26.25 11.25L25.6538 13.5871C25.406 14.5655 24.4938 15.25 23.4488 15.25H14L14.5962 12.9095C14.844 11.9345 15.7526 11.25 16.7976 11.25H26.25ZM13.2807 18.7448C13.5255 17.7219 14.423 17 15.4552 17H22L21.4111 19.4522C21.1664 20.4787 20.2654 21.2006 19.2331 21.2006H16.9203L16.147 24.4979C15.8986 25.5245 14.9976 26.25 13.9618 26.25H11.5L13.2807 18.7448Z" fill="url(#paint0_linear)"/>
<defs>
<linearGradient id="paint0_linear" x1="-4.30956e-06" y1="52.9733" x2="44.6124" y2="-2.63943" gradientUnits="userSpaceOnUse">
<stop stop-color="#64E2FF"/>
<stop offset="1" stop-color="#00B4DD" stop-opacity="0.69"/>
</linearGradient>
</defs>
</svg>
