<svg width="30" height="30" viewBox="0 0 30 30" fill="none" xmlns="http://www.w3.org/2000/svg">
<path d="M22.71 9.57012L20.82 21.0001C20.7867 21.2006 20.7036 21.3895 20.5784 21.5495C20.4532 21.7096 20.2898 21.8356 20.1033 21.9162C19.9168 21.9968 19.713 22.0293 19.5106 22.0108C19.3083 21.9922 19.1138 21.9233 18.945 21.8101L13.71 18.2851C13.6032 18.2132 13.514 18.1181 13.4491 18.0069C13.3842 17.8957 13.3453 17.7713 13.3352 17.643C13.3251 17.5146 13.3441 17.3857 13.3908 17.2657C13.4376 17.1457 13.5108 17.0378 13.605 16.9501L18.555 12.2701C18.6019 12.214 18.6279 12.1434 18.6284 12.0702C18.629 11.9971 18.604 11.9261 18.5579 11.8693C18.5118 11.8126 18.4474 11.7736 18.3757 11.7592C18.304 11.7447 18.2295 11.7557 18.165 11.7901L11.58 16.2001C11.2627 16.409 10.9027 16.5443 10.5264 16.5962C10.1501 16.6481 9.76699 16.6153 9.405 16.5001L6.6 15.6751C6.50024 15.6323 6.41523 15.5612 6.35549 15.4705C6.29576 15.3799 6.26392 15.2737 6.26392 15.1651C6.26392 15.0566 6.29576 14.9504 6.35549 14.8597C6.41523 14.7691 6.50024 14.6979 6.6 14.6551L15.255 10.8751L20.64 8.67012L21.345 8.40012C21.5165 8.3478 21.6984 8.33961 21.8739 8.37633C22.0494 8.41304 22.2128 8.49347 22.3489 8.61015C22.485 8.72683 22.5895 8.87599 22.6526 9.04381C22.7157 9.21162 22.7355 9.39265 22.71 9.57012Z" fill="#F5F5F5"/>
</svg>
